<svg xmlns="http://www.w3.org/2000/svg" width="32" height="32" viewBox="0 0 32 32">
    <g fill="none" fill-rule="nonzero">
        <path stroke="#FFF" stroke-opacity=".5" d="M16 .5C7.44.5.5 7.44.5 16c0 8.56 6.94 15.5 15.5 15.5 8.56 0 15.5-6.94 15.5-15.5C31.5 7.44 24.56.5 16 .5z"/>
        <path fill="#FFF" d="M17.193 24v-7.298h2.358l.354-2.845h-2.712v-1.815c0-.824.22-1.385 1.357-1.385H20V8.111A18.577 18.577 0 0 0 17.887 8c-2.091 0-3.522 1.326-3.522 3.76v2.097H12v2.845h2.365V24h2.828z"/>
    </g>
</svg>
