<svg xmlns="http://www.w3.org/2000/svg" width="44" height="32" viewBox="0 0 44 32">
    <g fill="#FFF" fill-rule="nonzero">
        <path d="M21.943 20.526c-5.806 0-11.246-.503-15.452-1.463L5.257 28.57c-.183 1.28.732 2.469 2.012 2.652 2.56.32 6.308.594 9.6.731.822.046 1.6-.274 2.194-.868l1.051-1.052a2.908 2.908 0 0 1 2.057-.868c.778 0 1.509.32 2.058.868l1.005 1.052c.595.594 1.372.914 2.195.868 3.108-.137 6.765-.365 9.234-.685 1.28-.183 2.194-1.326 2.011-2.606l-1.234-9.509c-4.251.823-9.737 1.372-15.497 1.372zm-3.886 5.851c-.823.594-2.194 1.372-3.748 1.372-1.555 0-2.926-.778-3.749-1.372a.812.812 0 0 1 0-1.326c.823-.594 2.194-1.371 3.749-1.371 1.554 0 2.925.777 3.748 1.371.412.32.412 1.006 0 1.326zm15.223 0c-.823.594-2.194 1.372-3.749 1.372-1.554 0-2.925-.778-3.748-1.372a.812.812 0 0 1 0-1.326c.823-.594 2.194-1.371 3.748-1.371 1.555 0 2.926.777 3.749 1.371a.812.812 0 0 1 0 1.326zM37.166 9.691l.457 1.875c.137.548-.229 1.097-.777 1.234-.549.137-1.097-.229-1.235-.777L33.463 2.88A3.663 3.663 0 0 0 29.074.137l-3.885.914a14.352 14.352 0 0 1-6.538 0L14.766.137a3.663 3.663 0 0 0-4.389 2.743L8.23 12.023c-.138.548-.686.914-1.235.777-.548-.137-.914-.686-.777-1.234l.457-1.875C2.651 10.606.183 11.886.183 13.35c0 2.834 9.737 5.12 21.714 5.12 11.977 0 21.714-2.286 21.714-5.12.046-1.418-2.422-2.698-6.445-3.658z"/>
    </g>
</svg>
