<svg xmlns="http://www.w3.org/2000/svg" width="32" height="32" viewBox="0 0 32 32">
    <g fill="none" fill-rule="evenodd">
        <path stroke="#FFF" stroke-opacity=".5" d="M16 .5C7.44.5.5 7.44.5 16c0 8.56 6.94 15.5 15.5 15.5 8.56 0 15.5-6.94 15.5-15.5C31.5 7.44 24.56.5 16 .5z"/>
        <g fill="#FFF" fill-rule="nonzero" transform="translate(8 8)">
            <path d="M7.729 1.399c2.047 0 2.29.005 3.1.043.745.032 1.155.157 1.426.265.356.14.615.308.88.572.27.27.432.524.572.88.103.27.233.676.265 1.426.038.81.043 1.053.043 3.1s-.005 2.29-.043 3.1c-.032.746-.157 1.156-.265 1.426-.14.357-.308.616-.572.88-.27.27-.524.433-.88.573-.27.103-.676.232-1.426.265-.81.038-1.053.043-3.1.043s-2.29-.005-3.1-.043c-.746-.033-1.156-.157-1.426-.265a2.413 2.413 0 0 1-.88-.572 2.389 2.389 0 0 1-.573-.88c-.103-.27-.232-.676-.265-1.427-.038-.81-.043-1.053-.043-3.1s.005-2.29.043-3.1c.033-.745.157-1.155.265-1.426.14-.356.308-.615.572-.88.27-.27.524-.432.88-.572.27-.103.676-.233 1.427-.265.81-.032 1.053-.043 3.1-.043zm0-1.383c-2.085 0-2.344.011-3.165.049C3.748.103 3.192.232 2.7.42c-.502.195-.934.46-1.36.886a3.722 3.722 0 0 0-.886 1.361c-.19.486-.319 1.048-.357 1.863C.06 5.352.05 5.611.05 7.696s.01 2.344.048 3.165c.038.816.168 1.372.357 1.863.194.503.459.935.885 1.361.427.427.854.692 1.361.886.486.19 1.048.319 1.864.357.82.037 1.08.048 3.165.048 2.084 0 2.344-.01 3.165-.048.815-.038 1.371-.168 1.863-.357.502-.194.934-.459 1.36-.886.427-.426.692-.853.887-1.36.189-.487.318-1.048.356-1.864.038-.82.049-1.08.049-3.165s-.011-2.344-.049-3.165c-.038-.815-.167-1.372-.356-1.863a3.767 3.767 0 0 0-.886-1.361 3.722 3.722 0 0 0-1.361-.886C12.27.232 11.709.103 10.894.065 10.073.027 9.814.016 7.729.016z"/>
            <path d="M7.729 3.748A3.938 3.938 0 0 0 3.79 7.685a3.941 3.941 0 0 0 3.938 3.938 3.941 3.941 0 0 0 3.937-3.938 3.938 3.938 0 0 0-3.937-3.937zm0 6.497a2.553 2.553 0 0 1-2.555-2.554 2.553 2.553 0 0 1 2.555-2.555 2.556 2.556 0 0 1 2.554 2.555 2.55 2.55 0 0 1-2.554 2.554z"/>
            <circle cx="11.828" cy="3.597" r="1"/>
        </g>
    </g>
</svg>
