<svg xmlns="http://www.w3.org/2000/svg" width="32" height="32" viewBox="0 0 32 32">
    <g fill="none" fill-rule="evenodd">
        <path fill-rule="nonzero" stroke="#FFF" stroke-opacity=".5" d="M16 .5C7.44.5.5 7.44.5 16c0 8.56 6.94 15.5 15.5 15.5 8.56 0 15.5-6.94 15.5-15.5C31.5 7.44 24.56.5 16 .5z"/>
        <path fill="#FFF" d="M15.828 20.962h.957s.288-.031.436-.188c.136-.144.132-.414.132-.414s-.02-1.265.576-1.451c.588-.184 1.341 1.222 2.14 1.763.605.41 1.064.32 1.064.32l2.137-.03s1.117-.068.587-.934c-.043-.071-.308-.641-1.588-1.812-1.34-1.227-1.16-1.028.453-3.15.983-1.29 1.376-2.08 1.253-2.417-.117-.322-.84-.237-.84-.237l-2.406.015s-.178-.024-.31.054c-.13.076-.212.254-.212.254s-.382 1-.89 1.85c-1.07 1.793-1.499 1.888-1.674 1.777-.407-.26-.305-1.043-.305-1.6 0-1.737.267-2.462-.521-2.65-.262-.062-.454-.103-1.123-.11-.858-.009-1.585.003-1.996.201-.274.133-.485.427-.356.444.159.02.519.096.71.352.246.33.237 1.073.237 1.073s.142 2.046-.33 2.3c-.325.175-.77-.181-1.725-1.808-.489-.834-.859-1.755-.859-1.755s-.07-.172-.198-.265c-.154-.111-.37-.147-.37-.147l-2.286.015s-.343.01-.469.157c-.112.13-.009.401-.009.401s1.79 4.13 3.817 6.21c1.858 1.908 3.968 1.782 3.968 1.782z"/>
    </g>
</svg>
